<svg width="222" height="68" viewBox="0 0 222 68" fill="none" xmlns="http://www.w3.org/2000/svg">
<g clip-path="url(#clip0_8966_9365)">
<path d="M208.742 68.0001H70.9753C69.2052 68.0001 67.8864 66.3824 68.2642 64.6714L70.8389 51.2041C71.1188 49.9459 72.2452 49.0471 73.55 49.0471H211.317C213.087 49.0471 214.406 50.6649 214.028 52.3759L211.453 65.8432C211.173 67.1014 210.047 68.0001 208.742 68.0001Z" fill="#EE343E"/>
<path d="M78.4546 64.3702C77.0973 64.3702 76.0828 64.225 75.4146 63.9346C74.4106 63.4956 73.9104 62.6937 73.9104 61.5322C73.9104 61.1416 73.9594 60.7096 74.0608 60.2394L74.7465 57.0558C75.0893 55.445 75.8274 54.3216 76.9503 53.689C77.8529 53.1774 79.1752 52.9216 80.9173 52.9216C82.2851 52.9216 83.2996 53.0668 83.9573 53.3572C84.9508 53.7893 85.4475 54.5878 85.4475 55.7596C85.4475 56.1502 85.3951 56.5823 85.2971 57.0524L84.6115 60.236C84.2651 61.8503 83.5305 62.9702 82.4076 63.6028C81.505 64.1144 80.1862 64.3702 78.4546 64.3702ZM79.0178 61.7569C79.8504 61.7569 80.4206 61.6567 80.7354 61.4562C81.1097 61.2142 81.3826 60.6992 81.5575 59.9076L82.1032 57.3669C82.1732 57.0351 82.2082 56.762 82.2082 56.5408C82.2082 56.0707 82.0018 55.7699 81.5855 55.6386C81.3721 55.5695 80.9628 55.5349 80.3541 55.5349C79.4936 55.5349 78.9164 55.6317 78.6225 55.8218C78.2587 56.0534 77.9893 56.5684 77.8179 57.3704L77.2722 59.9111C77.2022 60.2429 77.1672 60.516 77.1672 60.7372C77.1672 61.2177 77.3701 61.5253 77.7759 61.6532C77.9788 61.7224 78.3951 61.7569 79.0213 61.7569H79.0178Z" fill="white"/>
<path d="M123.69 60.0148H125.617C125.761 60.0182 125.775 60.1357 125.764 60.1841L125.736 60.3431C125.603 61.0345 125.432 61.6152 125.218 62.0853C124.652 63.2986 123.623 64.028 122.133 64.2803C121.769 64.3391 121.126 64.3702 120.202 64.3702C118.589 64.3702 117.484 64.2457 116.886 63.9934C115.994 63.6235 115.549 62.8562 115.549 61.6947C115.549 61.2557 115.616 60.7234 115.745 60.1012L116.368 57.1872C116.742 55.4554 117.473 54.2766 118.558 53.6579C119.418 53.1671 120.786 52.9216 122.665 52.9216C124.124 52.9216 125.124 53.0426 125.659 53.2811C126.348 53.5922 126.695 54.211 126.695 55.1443C126.695 55.5453 126.635 56.0361 126.513 56.6168L126.446 56.9418C126.446 56.9418 126.429 57.0558 126.303 57.0524H123.469C123.312 57.0455 123.319 56.9141 123.326 56.8795L123.382 56.6134C123.431 56.1536 123.305 55.846 123.001 55.6974C122.777 55.5867 122.367 55.5314 121.769 55.5314C120.937 55.5314 120.37 55.687 120.066 55.9981C119.814 56.2573 119.593 56.8139 119.411 57.6642L119.03 59.4237C118.887 60.0839 118.817 60.5263 118.817 60.7441C118.817 61.1658 118.988 61.4493 119.334 61.6014C119.558 61.7016 119.922 61.75 120.429 61.75C121.14 61.75 121.619 61.6809 121.874 61.5392C122.126 61.4043 122.318 61.1831 122.451 60.8686C122.882 60.0217 123.693 60.0078 123.693 60.0078L123.69 60.0148Z" fill="white"/>
<path d="M164.818 55.6669L163.283 64.1877C163.272 64.2533 163.213 64.3052 163.143 64.3052H160.39C160.299 64.3052 160.232 64.2222 160.25 64.1358L162.401 54.101C162.401 54.101 162.646 53.109 163.755 53.0364H167.32C167.393 53.0364 167.456 53.0917 167.46 53.1643L168.103 60.1122H168.208L171.434 53.7519C171.434 53.7519 171.822 53.0364 172.665 53.0364H176.562C176.653 53.0364 176.719 53.1193 176.702 53.2058L174.344 64.1911C174.33 64.2568 174.271 64.3017 174.204 64.3017H171.462C171.371 64.3017 171.301 64.2153 171.325 64.1289L173.442 55.6635H173.337L168.638 64.2291C168.614 64.2741 168.565 64.3017 168.513 64.3017H166.095C166.022 64.3017 165.962 64.2499 165.955 64.1773L164.909 55.6635H164.818V55.6669Z" fill="white"/>
<path d="M114.357 53.0154H112.688C111.974 53.0154 111.383 53.5131 111.24 54.1768V54.1907L110.995 55.321L109.109 64.1148C109.109 64.1148 109.109 64.1356 109.109 64.1425C109.109 64.222 109.176 64.2842 109.253 64.2842H110.921C111.635 64.2842 112.226 63.7864 112.37 63.1227V63.1089L113.542 57.6577L114.5 53.1848C114.5 53.1848 114.5 53.164 114.5 53.1571C114.5 53.0776 114.434 53.0154 114.357 53.0154Z" fill="white"/>
<path d="M132.778 53.0154H131.11C130.396 53.0154 129.805 53.5131 129.661 54.1768V54.1907L129.417 55.321L127.531 64.1148C127.531 64.1148 127.531 64.1356 127.531 64.1425C127.531 64.222 127.597 64.2842 127.674 64.2842H129.343C130.057 64.2842 130.648 63.7864 130.791 63.1227V63.1089L131.963 57.6577L132.922 53.1848C132.922 53.1848 132.922 53.164 132.922 53.1571C132.922 53.0776 132.855 53.0154 132.778 53.0154Z" fill="white"/>
<path d="M198.457 61.5188H198.433H194.329H193.839L194.7 57.5056L195.659 53.0327C195.659 53.0327 195.659 53.0119 195.659 53.005C195.659 52.9255 195.592 52.8633 195.515 52.8633H193.846C193.133 52.8633 192.542 53.361 192.398 54.0247V54.0386L192.153 55.1689L190.789 61.5188L190.264 63.9627C190.264 63.9627 190.264 63.9835 190.264 63.9904C190.264 64.063 190.317 64.1183 190.387 64.1286C190.394 64.1286 190.401 64.1321 190.408 64.1321H192.076C192.101 64.1321 192.122 64.1321 192.146 64.1321H195.91H196.946H196.956C197.565 64.1321 198.111 63.7173 198.24 63.1055L198.548 61.6744C198.562 61.6053 198.52 61.5396 198.45 61.5258L198.457 61.5188Z" fill="white"/>
<path d="M155.534 61.5188H155.51H151.406H150.917L151.777 57.5056L152.736 53.0327C152.736 53.0327 152.736 53.0119 152.736 53.005C152.736 52.9255 152.669 52.8633 152.592 52.8633H150.924C150.21 52.8633 149.619 53.361 149.475 54.0247V54.0386L149.231 55.1689L147.866 61.5188L147.342 63.9627C147.342 63.9627 147.342 63.9835 147.342 63.9904C147.342 64.063 147.394 64.1183 147.464 64.1286C147.471 64.1286 147.478 64.1321 147.485 64.1321H149.154C149.178 64.1321 149.199 64.1321 149.224 64.1321H152.988H154.023H154.034C154.642 64.1321 155.188 63.7173 155.317 63.1055L155.625 61.6744C155.639 61.6053 155.597 61.5396 155.527 61.5258L155.534 61.5188Z" fill="white"/>
<path d="M208.651 61.5188H208.627H204.523H204.033L204.894 57.5056L205.852 53.0327C205.852 53.0327 205.852 53.0119 205.852 53.005C205.852 52.9255 205.786 52.8633 205.709 52.8633H204.04C203.327 52.8633 202.736 53.361 202.592 54.0247V54.0386L202.347 55.1689L200.983 61.5188L200.458 63.9627C200.458 63.9627 200.458 63.9835 200.458 63.9904C200.458 64.063 200.511 64.1183 200.581 64.1286C200.588 64.1286 200.595 64.1321 200.602 64.1321H202.27C202.295 64.1321 202.316 64.1321 202.34 64.1321H206.104H207.14H207.15C207.759 64.1321 208.305 63.7173 208.434 63.1055L208.742 61.6744C208.756 61.6053 208.714 61.5396 208.644 61.5258L208.651 61.5188Z" fill="white"/>
<path d="M187.133 52.9428H183.506C182.684 52.9428 182.278 53.6445 182.278 53.6445L176.905 64.0111C176.898 64.0284 176.894 64.0492 176.894 64.0664C176.894 64.1459 176.961 64.2082 177.038 64.2082H179.077C179.934 64.2082 180.329 63.4753 180.329 63.4753L180.935 62.269H185.031L185.202 64.0768C185.202 64.0768 185.209 64.1978 185.342 64.2082H188.155C188.179 64.2082 188.305 64.1909 188.298 64.0561L187.277 53.0742C187.27 52.9843 187.189 52.9394 187.133 52.9428ZM182.072 60.0774L184.517 55.1966H184.548L184.895 60.0774H182.072Z" fill="white"/>
<path d="M143.588 52.9428H139.96C139.138 52.9428 138.732 53.6445 138.732 53.6445L133.359 64.0111C133.352 64.0284 133.349 64.0492 133.349 64.0664C133.349 64.1459 133.415 64.2082 133.492 64.2082H135.532C136.389 64.2082 136.784 63.4753 136.784 63.4753L137.389 62.269H141.485L141.657 64.0768C141.657 64.0768 141.664 64.1978 141.797 64.2082H144.609C144.634 64.2082 144.76 64.1909 144.753 64.0561L143.731 53.0742C143.724 52.9843 143.644 52.9394 143.588 52.9428ZM138.526 60.0774L140.971 55.1966H141.003L141.349 60.0774H138.526Z" fill="white"/>
<path d="M96.4072 53.0154H89.9215C89.2079 53.0154 88.6167 53.5131 88.4732 54.1768V54.1907L88.2284 55.321L86.3428 64.1148C86.3428 64.1148 86.3428 64.1356 86.3428 64.1425C86.3428 64.222 86.4093 64.2842 86.4863 64.2842H88.1549C88.8686 64.2842 89.4598 63.7864 89.6032 63.1227V63.1089L90.3518 59.6315H95.0254C95.1129 59.628 95.1828 59.5762 95.2143 59.5036C95.2878 59.1579 95.3822 58.7189 95.3822 58.7189L95.5187 58.0587C95.5187 58.0587 95.5536 57.8962 95.5536 57.8306C95.5536 57.637 95.3927 57.5367 95.1898 57.5367H90.7996L91.2438 55.4731H96.2148C96.3163 55.4696 96.3967 55.4074 96.4352 55.3245C96.5226 54.92 96.6311 54.405 96.6311 54.405L96.792 53.6307C96.792 53.6307 96.834 53.4406 96.834 53.361C96.834 53.1329 96.6451 53.0154 96.4072 53.0154Z" fill="white"/>
<path d="M107.766 53.0154H101.28C100.567 53.0154 99.9755 53.5131 99.832 54.1768V54.1907L99.5871 55.321L97.7016 64.1148C97.7016 64.1148 97.7016 64.1356 97.7016 64.1425C97.7016 64.222 97.7681 64.2842 97.845 64.2842H99.5137C100.227 64.2842 100.819 63.7864 100.962 63.1227V63.1089L101.711 59.6315H106.384C106.472 59.628 106.542 59.5762 106.573 59.5036C106.647 59.1579 106.741 58.7189 106.741 58.7189L106.877 58.0587C106.877 58.0587 106.912 57.8962 106.912 57.8306C106.912 57.637 106.751 57.5367 106.549 57.5367H102.158L102.603 55.4731H107.574C107.675 55.4696 107.755 55.4074 107.794 55.3245C107.881 54.92 107.99 54.405 107.99 54.405L108.151 53.6307C108.151 53.6307 108.193 53.4406 108.193 53.361C108.193 53.1329 108.004 53.0154 107.766 53.0154Z" fill="white"/>
<path d="M46.317 43.1803C45.9462 44.6943 43.8298 46.3916 41.1187 46.3916C38.1976 46.3916 35.7909 44.7047 36.6549 40.4944L38.1417 32.8724C38.565 30.8053 37.9038 29.8236 36.1232 29.8236C35.1507 29.8236 33.9368 30.2419 32.9083 30.9471L30.0258 46.0977C29.9943 46.2602 29.8509 46.3743 29.6865 46.3743H24.0404C22.9944 46.3743 22.5886 45.9215 22.753 45.123L27.5071 20.5113C26.643 20.494 25.5621 20.4215 24.2398 20.2763C23.2288 20.1691 21.7035 19.025 21.5776 18.662C21.5041 18.4269 21.6686 18.1884 21.9099 18.1366C23.0853 17.8842 30.9458 16.5569 33.7759 16.5569C35.0632 16.5569 35.63 17.1203 35.4271 18.1539L33.6814 26.9373C35.5915 25.1398 38.1067 24.2134 40.2196 24.2134C44.7183 24.2134 46.7578 27.0998 45.5474 33.1248L44.372 39.2224C44.1691 40.294 44.4839 40.7848 45.2536 40.7848H46.3555C46.4464 41.5798 46.5234 42.3507 46.317 43.1803ZM70.4582 26.8025C70.3463 26.8924 70.2553 26.9857 70.1469 27.0756C71.8925 28.9629 72.7181 31.7767 72.0009 35.3682C70.6226 42.4993 64.3783 46.5471 58.3544 46.5471C52.3305 46.5471 47.7198 42.4993 49.1156 35.3682C49.7208 32.3021 51.2285 29.796 53.212 27.9639C52.7153 27.9259 52.2185 27.8914 51.7253 27.8361C50.6968 27.7254 49.4654 26.7472 49.336 26.3842C49.245 26.1665 49.4269 25.9314 49.6683 25.8761C50.8437 25.603 52.9356 25.2574 54.4609 25.0223C59.9531 24.1512 62.5418 24.1685 62.7796 24.1685C64.966 24.1685 66.967 24.7147 68.5657 25.7482C68.8211 25.4406 69.024 25.1122 69.1534 24.8045C68.2718 24.4969 67.7191 23.6258 67.9605 22.3918C68.2369 20.9227 69.4472 20.0136 70.808 20.0136C72.0744 20.0136 73.1239 20.9953 72.809 22.5923C72.4977 24.2238 71.7071 25.6065 70.4582 26.8025ZM61.4958 29.7822C59.18 29.7822 57.3434 31.5969 56.6088 35.1711C55.9301 38.7834 57.067 40.9438 59.6207 40.9438C61.9366 40.9438 63.8081 39.1291 64.4868 35.5721C65.2214 31.9599 64.046 29.7822 61.4923 29.7822H61.4958ZM57.9346 49.1189C55.8252 49.1189 53.9956 50.5223 53.5513 52.8106C53.0651 55.2995 54.6883 56.8204 56.6787 56.8204C58.7882 56.8204 60.6562 55.417 61.104 53.1287C61.5902 50.6433 59.9251 49.1189 57.9381 49.1189H57.9346ZM22.3577 28.3511C21.3467 25.9729 18.4992 24.2134 14.2768 24.2134C14.0005 24.2134 11.3383 24.1962 5.84611 25.0672C4.33838 25.3023 2.02606 25.648 0.850658 25.921C0.612779 25.9764 0.448363 26.2114 0.521825 26.4292C0.651259 26.7921 2.02956 27.7911 3.03705 27.9536C3.56877 28.0435 4.13898 28.0988 4.6917 28.1541C2.9286 29.9515 1.71472 32.2572 1.22147 34.8151C-0.156829 41.9463 4.17746 46.592 10.6807 46.592C15.5852 46.592 19.1673 44.1413 19.4402 42.7793C19.5871 42.0396 19.4157 40.8643 19.0834 40.0727C19.0134 39.9103 18.821 39.8515 18.6601 39.931C17.3832 40.5601 15.5817 40.9818 13.913 40.9818C9.94603 40.9818 7.99752 38.4585 8.73215 34.7218C9.33734 31.6004 10.9185 29.8202 13.0315 29.8202C14.5182 29.8202 15.4032 30.6394 15.5642 32.672C15.5817 32.8828 15.7671 33.0487 15.977 33.0211C17.9604 32.7618 19.6676 32.2364 20.6156 31.7594C21.756 31.196 22.3612 30.5426 22.4906 29.8167C22.6026 29.3432 22.6026 28.9457 22.3612 28.3476L22.3577 28.3511ZM131.862 9.51905C132.985 10.4282 133.72 10.0756 135.105 8.92796C137.197 7.19961 138.089 6.5221 139.1 5.52312C140.531 4.10933 140.486 2.55037 139.639 1.71039C139.307 1.382 138.044 0.68721 136.917 0.109942C136.554 -0.0767189 136.2 -0.0490654 135.948 0.306974C135.725 0.621532 131.705 6.43914 130.844 7.80108C130.68 8.06033 130.544 8.36452 131.026 8.80006C131.026 8.80006 131.576 9.28745 131.859 9.51905H131.862ZM127.591 8.93833C126.895 9.42227 125.723 10.0721 125.072 10.3452C124.663 10.5146 124.31 10.5803 123.953 10.5803C123.596 10.5803 123.176 10.442 122.641 10.1827C121.686 9.71954 120.231 9.04203 120.231 9.04203C119.573 8.66871 118.783 8.60303 118.069 8.86228L113.595 10.3348C113.004 10.5422 112.356 10.5941 111.751 10.3936C111.017 10.1482 108.806 8.88302 108.715 8.81043C108.522 8.65488 108.403 8.49242 108.396 8.26427C108.389 7.97046 108.564 7.76997 108.991 7.53837L116.932 3.29355C117.544 2.95134 118.254 2.76814 118.989 2.76814H121.119C121.746 2.76814 121.952 2.8027 122.554 3.28664C123.841 4.32365 127.441 7.54183 127.441 7.54183C127.826 7.85984 128.025 8.11564 128.025 8.35069C128.025 8.55464 127.969 8.67562 127.588 8.94524L127.591 8.93833ZM119.661 12.4849C124.31 12.6439 127.805 14.1579 129.645 16.4601C131.537 18.7173 131.96 22.6683 130.754 28.3338L130.033 31.6937C128.826 37.4076 126.996 41.2687 124.632 43.3808C122.267 45.4928 119.024 46.4192 113.847 46.6197C112.671 46.6646 111.122 46.6543 110.215 46.6197C104.923 46.4227 101.925 45.4133 100.032 43.1561C98.1921 40.8505 97.8528 36.8753 99.0562 31.2098L99.7768 27.8499C101.033 22.136 102.841 18.2472 105.21 16.1386C107.574 14.0266 111.237 12.5437 116.03 12.4814C116.897 12.4711 118.244 12.433 119.661 12.4814V12.4849ZM124.765 19.7751C123.817 18.9385 122.417 19.1528 121.396 20.1933L110.502 32.1915C110.411 32.2814 110.355 32.3194 110.355 32.3194C110.355 32.3194 110.282 32.3021 110.174 32.1915C109.61 31.7006 108.407 30.3905 108.407 30.3698C107.169 28.9664 105.748 29.2222 104.909 29.8962C104.069 30.553 103.635 32.0256 104.415 33.3011L104.636 33.6467C105.328 34.7944 106.385 36.5227 107.13 37.5044C107.875 38.4688 108.953 39.0703 110.118 39.1256H110.282C111.356 39.1256 112.395 38.6693 113.144 37.8328C116.495 34.1756 124.527 23.4149 124.894 22.9241C125.744 21.7661 125.604 20.501 124.768 19.7751H124.765ZM101.669 13.1036C101.669 13.1036 78.3292 13.1175 75.2158 13.1036C74.5581 13.1036 74.2293 13.591 74.2293 14.1752C74.2293 14.5416 74.7051 15.3125 75.2648 16.0729C75.6216 16.5465 77.5246 19.0664 78.2907 20.0516C78.4936 20.3108 78.812 20.4733 79.1548 20.4733H84.1887L79.2178 45.8731C79.1618 46.1289 79.3682 46.3881 79.6445 46.3881H84.7869C86.8159 46.3881 88.558 44.964 88.9428 43.0006L93.3366 20.4733H97.8388C98.1816 20.4733 98.4965 20.3108 98.7029 20.0516C98.7029 20.0516 99.7768 18.6758 100.781 17.3761C101.421 16.5465 101.879 15.9381 102.261 15.3712C102.617 14.8562 102.782 14.4621 102.782 14.1787C102.782 13.5703 102.331 13.1071 101.669 13.1071V13.1036ZM157.826 13.1348H132.587C131.807 13.1348 131.516 13.5288 131.516 14.1234C131.516 14.4068 131.702 14.8458 132.023 15.3574C133.3 17.383 134.017 18.541 135.161 20.0481C135.368 20.3178 135.683 20.4698 136.025 20.4698H140.608L135.634 45.9007C135.578 46.1703 135.784 46.4158 136.071 46.4158H141.241C143.256 46.4158 144.998 44.9916 145.383 43.0282L149.784 20.4698L156.088 20.456C156.388 20.456 156.644 20.2763 156.759 20.0239C157.151 19.1598 158.113 17.0788 158.113 17.0788C158.456 16.2803 158.645 15.8033 158.963 14.9668C159.075 14.673 159.1 14.3964 159.1 14.1683C159.1 13.4908 158.54 13.1382 157.826 13.1382V13.1348Z" fill="#FDBA13"/>
<path d="M195.043 14.9816C195.043 14.9816 195.057 14.9574 195.064 14.9435C195.207 14.6601 195.207 14.3697 195.207 14.1416C195.207 13.6092 194.854 13.2739 194.361 13.1564C194.228 13.1219 194.084 13.108 193.927 13.108H186.661C186.336 13.1149 186.032 13.1806 185.745 13.2636C185.685 13.2843 185.626 13.3051 185.566 13.3258C184.268 13.7994 183.453 14.8606 183.453 14.8606L179.388 20.5537L179.371 20.5779L176.139 25.1027C176.076 25.1961 175.929 25.1719 175.901 25.0613L175.771 24.6015L174.645 20.616L174.596 20.4569L172.805 14.1312C172.71 13.8063 172.511 13.5367 172.245 13.3535C172.042 13.2117 171.804 13.1288 171.552 13.1046C171.51 13.0977 171.472 13.0977 171.433 13.0977H163.65C162.845 13.0977 162.282 13.8927 162.558 14.6463L166.375 25.5314L167.424 28.6631C167.442 28.7046 167.431 28.7565 167.403 28.7876L164.524 32.5519L154.261 45.7772C154.037 46.0503 154.236 46.4547 154.59 46.4547H163.283C163.339 46.4547 163.395 46.4547 163.444 46.4547C165.735 46.3787 166.896 44.6987 166.896 44.6987L172.616 37.4708L174.967 34.2595L175.281 33.824C175.348 33.7341 175.1 33.7583 175.131 33.8654L177.877 45.6009L178.024 46.0814V46.0883C178.094 46.313 178.3 46.4616 178.542 46.4616H178.895L181.547 46.4547C181.596 46.4547 181.704 46.4547 181.827 46.4547H183.132C183.411 46.4616 182.26 46.4651 182.74 46.4651C185.3 46.4651 187.151 44.799 187.151 43.2435C187.151 43.0533 187.151 42.8252 187.109 42.6247C187.088 42.5037 187.064 42.3827 187.029 42.2618C186.955 41.9887 184.352 29.3648 184.352 29.3648C184.335 29.3234 184.345 29.275 184.37 29.2404L186.542 26.6306L191.114 20.5503L191.121 20.5399C191.121 20.5399 194.546 15.8803 195.046 14.9954V14.9885L195.043 14.9816Z" fill="#EE343E"/>
<path d="M220.237 13.1011H206.962L201.669 13.1668C199.559 13.1668 197.663 14.788 197.247 16.7479L197.237 16.7859L196.831 18.6837L196.523 20.1286H196.519L191.419 45.9535C191.419 45.9535 191.416 46.0088 191.416 46.0364C191.416 46.2715 191.604 46.4582 191.842 46.4582H207.5L211.898 46.4478C212.031 46.4478 212.164 46.4443 212.293 46.4236C214.018 46.1505 215.434 44.8266 215.77 43.0741L216.414 39.7591C216.501 39.0989 215.935 39.2026 215.245 39.1818H202.029L203.282 32.6902H210.88L217.33 32.6798C217.589 32.6798 217.796 32.5277 217.894 32.3134C218.107 31.2902 218.758 28.0306 218.758 28.0306C218.758 28.0306 218.863 27.5501 218.863 27.3565C218.863 26.7827 218.387 26.4854 217.789 26.4854H211.971L204.53 26.4508L205.72 20.5572H213.314L219.699 20.5434C219.947 20.5053 220.15 20.3429 220.248 20.1182C220.65 19.2506 221.42 14.705 221.441 14.6359C221.455 14.5806 221.465 14.5287 221.469 14.4734C221.493 14.3421 221.507 14.2107 221.507 14.1208C221.507 13.4502 220.951 13.0977 220.244 13.0977L220.237 13.1011Z" fill="#EE343E"/>
</g>
<defs>
<clipPath id="clip0_8966_9365">
<rect width="221" height="68" fill="white" transform="translate(0.5)"/>
</clipPath>
</defs>
</svg>
